<svg id="Ebene_1" data-name="Ebene 1" xmlns="http://www.w3.org/2000/svg" viewBox="0 0 510.81 794.27"><defs><style>.cls-1,.cls-2,.cls-3,.cls-4{fill:none;stroke:#999;stroke-linecap:square;stroke-miterlimit:10;}.cls-1{stroke-width:0.57px;}.cls-2{stroke-width:0.09px;}.cls-3{stroke-width:0.28px;}.cls-4{stroke-width:0.1px;}</style></defs><line class="cls-1" x1="0.28" y1="0.28" x2="510.52" y2="0.28"/><line class="cls-2" x1="0.28" y1="3.12" x2="510.52" y2="3.12"/><line class="cls-2" x1="0.28" y1="5.96" x2="510.52" y2="5.96"/><line class="cls-2" x1="0.28" y1="8.79" x2="510.52" y2="8.79"/><line class="cls-2" x1="0.28" y1="11.63" x2="510.52" y2="11.63"/><line class="cls-3" x1="0.28" y1="14.45" x2="510.52" y2="14.45"/><line class="cls-2" x1="0.28" y1="17.3" x2="510.52" y2="17.3"/><line class="cls-2" x1="0.28" y1="20.13" x2="510.52" y2="20.13"/><line class="cls-2" x1="0.28" y1="22.97" x2="510.52" y2="22.97"/><line class="cls-2" x1="0.28" y1="25.8" x2="510.52" y2="25.8"/><line class="cls-1" x1="0.28" y1="28.63" x2="510.52" y2="28.63"/><line class="cls-2" x1="0.28" y1="31.46" x2="510.52" y2="31.46"/><line class="cls-2" x1="0.28" y1="34.3" x2="510.52" y2="34.3"/><line class="cls-2" x1="0.28" y1="37.14" x2="510.52" y2="37.14"/><line class="cls-2" x1="0.28" y1="39.97" x2="510.52" y2="39.97"/><line class="cls-3" x1="0.28" y1="42.81" x2="510.52" y2="42.81"/><line class="cls-2" x1="0.28" y1="45.63" x2="510.52" y2="45.63"/><line class="cls-2" x1="0.28" y1="48.48" x2="510.52" y2="48.48"/><line class="cls-2" x1="0.28" y1="51.31" x2="510.52" y2="51.31"/><line class="cls-2" x1="0.28" y1="54.15" x2="510.52" y2="54.15"/><line class="cls-1" x1="0.28" y1="56.98" x2="510.52" y2="56.98"/><line class="cls-2" x1="0.28" y1="59.82" x2="510.52" y2="59.82"/><line class="cls-2" x1="0.28" y1="62.65" x2="510.52" y2="62.65"/><line class="cls-2" x1="0.28" y1="65.48" x2="510.52" y2="65.48"/><line class="cls-2" x1="0.28" y1="68.32" x2="510.52" y2="68.32"/><line class="cls-3" x1="0.28" y1="71.14" x2="510.52" y2="71.14"/><line class="cls-2" x1="0.28" y1="73.99" x2="510.52" y2="73.99"/><line class="cls-2" x1="0.28" y1="76.82" x2="510.52" y2="76.82"/><line class="cls-2" x1="0.28" y1="79.66" x2="510.52" y2="79.66"/><line class="cls-2" x1="0.28" y1="82.49" x2="510.52" y2="82.49"/><line class="cls-1" x1="0.28" y1="85.32" x2="510.52" y2="85.32"/><line class="cls-2" x1="0.28" y1="88.15" x2="510.52" y2="88.15"/><line class="cls-2" x1="0.28" y1="91" x2="510.52" y2="91"/><line class="cls-2" x1="0.28" y1="93.83" x2="510.52" y2="93.83"/><line class="cls-2" x1="0.28" y1="96.67" x2="510.52" y2="96.67"/><line class="cls-3" x1="0.28" y1="99.5" x2="510.52" y2="99.5"/><line class="cls-2" x1="0.28" y1="102.33" x2="510.52" y2="102.33"/><line class="cls-2" x1="0.28" y1="105.17" x2="510.52" y2="105.17"/><line class="cls-2" x1="0.28" y1="108" x2="510.52" y2="108"/><line class="cls-2" x1="0.28" y1="110.84" x2="510.52" y2="110.84"/><line class="cls-1" x1="0.28" y1="113.67" x2="510.52" y2="113.67"/><line class="cls-2" x1="0.28" y1="116.51" x2="510.52" y2="116.51"/><line class="cls-2" x1="0.28" y1="119.34" x2="510.52" y2="119.34"/><line class="cls-2" x1="0.28" y1="122.18" x2="510.52" y2="122.18"/><line class="cls-2" x1="0.28" y1="125.01" x2="510.52" y2="125.01"/><line class="cls-3" x1="0.28" y1="127.84" x2="510.52" y2="127.84"/><line class="cls-2" x1="0.28" y1="130.68" x2="510.52" y2="130.68"/><line class="cls-2" x1="0.28" y1="133.52" x2="510.52" y2="133.52"/><line class="cls-2" x1="0.28" y1="136.35" x2="510.52" y2="136.35"/><line class="cls-2" x1="0.28" y1="139.19" x2="510.52" y2="139.19"/><line class="cls-1" x1="0.28" y1="142.01" x2="510.52" y2="142.01"/><line class="cls-2" x1="0.28" y1="144.84" x2="510.52" y2="144.84"/><line class="cls-2" x1="0.28" y1="147.69" x2="510.52" y2="147.69"/><line class="cls-2" x1="0.28" y1="150.52" x2="510.52" y2="150.52"/><line class="cls-2" x1="0.28" y1="153.36" x2="510.52" y2="153.36"/><line class="cls-3" x1="0.28" y1="156.19" x2="510.52" y2="156.19"/><line class="cls-2" x1="0.28" y1="159.02" x2="510.52" y2="159.02"/><line class="cls-2" x1="0.28" y1="161.86" x2="510.52" y2="161.86"/><line class="cls-2" x1="0.28" y1="164.7" x2="510.52" y2="164.7"/><line class="cls-2" x1="0.28" y1="167.53" x2="510.52" y2="167.53"/><line class="cls-1" x1="0.28" y1="170.37" x2="510.52" y2="170.37"/><line class="cls-2" x1="0.28" y1="173.2" x2="510.52" y2="173.2"/><line class="cls-2" x1="0.28" y1="176.04" x2="510.52" y2="176.04"/><line class="cls-2" x1="0.28" y1="178.87" x2="510.52" y2="178.87"/><line class="cls-2" x1="0.28" y1="181.71" x2="510.52" y2="181.71"/><line class="cls-3" x1="0.28" y1="184.53" x2="510.52" y2="184.53"/><line class="cls-2" x1="0.28" y1="187.37" x2="510.52" y2="187.37"/><line class="cls-2" x1="0.28" y1="190.21" x2="510.52" y2="190.21"/><line class="cls-2" x1="0.28" y1="193.04" x2="510.52" y2="193.04"/><line class="cls-2" x1="0.28" y1="195.88" x2="510.52" y2="195.88"/><line class="cls-1" x1="0.28" y1="198.7" x2="510.52" y2="198.7"/><line class="cls-2" x1="0.28" y1="201.55" x2="510.52" y2="201.55"/><line class="cls-2" x1="0.28" y1="204.38" x2="510.52" y2="204.38"/><line class="cls-2" x1="0.28" y1="207.22" x2="510.52" y2="207.22"/><line class="cls-2" x1="0.28" y1="210.05" x2="510.52" y2="210.05"/><line class="cls-3" x1="0.28" y1="212.88" x2="510.52" y2="212.88"/><line class="cls-2" x1="0.28" y1="215.71" x2="510.52" y2="215.71"/><line class="cls-2" x1="0.28" y1="218.56" x2="510.52" y2="218.56"/><line class="cls-2" x1="0.28" y1="221.39" x2="510.52" y2="221.39"/><line class="cls-2" x1="0.28" y1="224.22" x2="510.52" y2="224.22"/><line class="cls-1" x1="0.28" y1="227.06" x2="510.52" y2="227.06"/><line class="cls-2" x1="0.28" y1="229.88" x2="510.52" y2="229.88"/><line class="cls-2" x1="0.28" y1="232.73" x2="510.52" y2="232.73"/><line class="cls-2" x1="0.28" y1="235.56" x2="510.52" y2="235.56"/><line class="cls-2" x1="0.28" y1="238.4" x2="510.52" y2="238.4"/><line class="cls-3" x1="0.28" y1="241.23" x2="510.52" y2="241.23"/><line class="cls-2" x1="0.28" y1="244.07" x2="510.52" y2="244.07"/><line class="cls-2" x1="0.28" y1="246.9" x2="510.52" y2="246.9"/><line class="cls-2" x1="0.28" y1="249.74" x2="510.52" y2="249.74"/><line class="cls-2" x1="0.28" y1="252.57" x2="510.52" y2="252.57"/><line class="cls-1" x1="0.28" y1="255.4" x2="510.52" y2="255.4"/><line class="cls-2" x1="0.28" y1="258.24" x2="510.52" y2="258.24"/><line class="cls-2" x1="0.28" y1="261.08" x2="510.52" y2="261.08"/><line class="cls-2" x1="0.28" y1="263.91" x2="510.52" y2="263.91"/><line class="cls-2" x1="0.28" y1="266.74" x2="510.52" y2="266.74"/><line class="cls-3" x1="0.28" y1="269.57" x2="510.52" y2="269.57"/><line class="cls-2" x1="0.28" y1="272.4" x2="510.52" y2="272.4"/><line class="cls-2" x1="0.28" y1="275.25" x2="510.52" y2="275.25"/><line class="cls-2" x1="0.28" y1="278.08" x2="510.52" y2="278.08"/><line class="cls-2" x1="0.28" y1="280.92" x2="510.52" y2="280.92"/><line class="cls-1" x1="0.28" y1="283.75" x2="510.52" y2="283.75"/><line class="cls-2" x1="0.28" y1="286.58" x2="510.52" y2="286.58"/><line class="cls-2" x1="0.28" y1="289.42" x2="510.52" y2="289.42"/><line class="cls-2" x1="0.28" y1="292.26" x2="510.52" y2="292.26"/><line class="cls-2" x1="0.28" y1="295.09" x2="510.52" y2="295.09"/><line class="cls-3" x1="0.28" y1="297.93" x2="510.52" y2="297.93"/><line class="cls-2" x1="0.28" y1="300.76" x2="510.52" y2="300.76"/><line class="cls-2" x1="0.28" y1="303.59" x2="510.52" y2="303.59"/><line class="cls-2" x1="0.28" y1="306.43" x2="510.52" y2="306.43"/><line class="cls-2" x1="0.28" y1="309.26" x2="510.52" y2="309.26"/><line class="cls-1" x1="0.28" y1="312.09" x2="510.52" y2="312.09"/><line class="cls-2" x1="0.28" y1="314.93" x2="510.52" y2="314.93"/><line class="cls-2" x1="0.28" y1="317.77" x2="510.52" y2="317.77"/><line class="cls-2" x1="0.28" y1="320.59" x2="510.52" y2="320.59"/><line class="cls-2" x1="0.28" y1="323.43" x2="510.52" y2="323.43"/><line class="cls-3" x1="0.28" y1="326.27" x2="510.52" y2="326.27"/><line class="cls-2" x1="0.28" y1="329.11" x2="510.52" y2="329.11"/><line class="cls-2" x1="0.28" y1="331.93" x2="510.52" y2="331.93"/><line class="cls-2" x1="0.28" y1="334.77" x2="510.52" y2="334.77"/><line class="cls-2" x1="0.28" y1="337.6" x2="510.52" y2="337.6"/><line class="cls-1" x1="0.28" y1="340.45" x2="510.52" y2="340.45"/><line class="cls-2" x1="0.28" y1="343.27" x2="510.52" y2="343.27"/><line class="cls-2" x1="0.28" y1="346.1" x2="510.52" y2="346.1"/><line class="cls-2" x1="0.28" y1="348.94" x2="510.52" y2="348.94"/><line class="cls-2" x1="0.28" y1="351.77" x2="510.52" y2="351.77"/><line class="cls-3" x1="0.28" y1="354.62" x2="510.52" y2="354.62"/><line class="cls-2" x1="0.28" y1="357.45" x2="510.52" y2="357.45"/><line class="cls-2" x1="0.28" y1="360.28" x2="510.52" y2="360.28"/><line class="cls-2" x1="0.28" y1="363.11" x2="510.52" y2="363.11"/><line class="cls-2" x1="0.28" y1="365.95" x2="510.52" y2="365.95"/><line class="cls-1" x1="0.28" y1="368.78" x2="510.52" y2="368.78"/><line class="cls-2" x1="0.28" y1="371.62" x2="510.52" y2="371.62"/><line class="cls-2" x1="0.28" y1="374.45" x2="510.52" y2="374.45"/><line class="cls-2" x1="0.28" y1="377.29" x2="510.52" y2="377.29"/><line class="cls-2" x1="0.28" y1="380.12" x2="510.52" y2="380.12"/><line class="cls-3" x1="0.28" y1="382.96" x2="510.52" y2="382.96"/><line class="cls-2" x1="0.28" y1="385.8" x2="510.52" y2="385.8"/><line class="cls-2" x1="0.28" y1="388.62" x2="510.52" y2="388.62"/><line class="cls-2" x1="0.28" y1="391.46" x2="510.52" y2="391.46"/><line class="cls-2" x1="0.28" y1="394.29" x2="510.52" y2="394.29"/><line class="cls-1" x1="0.28" y1="397.14" x2="510.52" y2="397.14"/><line class="cls-2" x1="0.28" y1="399.96" x2="510.52" y2="399.96"/><line class="cls-2" x1="0.28" y1="402.8" x2="510.52" y2="402.8"/><line class="cls-2" x1="0.28" y1="405.63" x2="510.52" y2="405.63"/><line class="cls-2" x1="0.28" y1="408.47" x2="510.52" y2="408.47"/><line class="cls-3" x1="0.28" y1="411.31" x2="510.52" y2="411.31"/><line class="cls-2" x1="0.28" y1="414.15" x2="510.52" y2="414.15"/><line class="cls-2" x1="0.28" y1="416.98" x2="510.52" y2="416.98"/><line class="cls-2" x1="0.28" y1="419.81" x2="510.52" y2="419.81"/><line class="cls-2" x1="0.28" y1="422.64" x2="510.52" y2="422.64"/><line class="cls-1" x1="0.28" y1="425.48" x2="510.52" y2="425.48"/><line class="cls-2" x1="0.28" y1="428.31" x2="510.52" y2="428.31"/><line class="cls-2" x1="0.28" y1="431.14" x2="510.52" y2="431.14"/><line class="cls-2" x1="0.28" y1="433.98" x2="510.52" y2="433.98"/><line class="cls-2" x1="0.28" y1="436.81" x2="510.52" y2="436.81"/><line class="cls-3" x1="0.28" y1="439.65" x2="510.52" y2="439.65"/><line class="cls-2" x1="0.28" y1="442.49" x2="510.52" y2="442.49"/><line class="cls-2" x1="0.28" y1="445.33" x2="510.52" y2="445.33"/><line class="cls-2" x1="0.28" y1="448.15" x2="510.52" y2="448.15"/><line class="cls-2" x1="0.28" y1="450.99" x2="510.52" y2="450.99"/><line class="cls-1" x1="0.28" y1="453.83" x2="510.52" y2="453.83"/><line class="cls-2" x1="0.28" y1="456.67" x2="510.52" y2="456.67"/><line class="cls-2" x1="0.28" y1="459.49" x2="510.52" y2="459.49"/><line class="cls-2" x1="0.28" y1="462.33" x2="510.52" y2="462.33"/><line class="cls-2" x1="0.28" y1="465.16" x2="510.52" y2="465.16"/><line class="cls-3" x1="0.28" y1="467.99" x2="510.52" y2="467.99"/><line class="cls-2" x1="0.28" y1="470.84" x2="510.52" y2="470.84"/><line class="cls-2" x1="0.28" y1="473.67" x2="510.52" y2="473.67"/><line class="cls-2" x1="0.28" y1="476.51" x2="510.52" y2="476.51"/><line class="cls-2" x1="0.28" y1="479.33" x2="510.52" y2="479.33"/><line class="cls-1" x1="0.28" y1="482.18" x2="510.52" y2="482.18"/><line class="cls-2" x1="0.28" y1="485.01" x2="510.52" y2="485.01"/><line class="cls-2" x1="0.28" y1="487.84" x2="510.52" y2="487.84"/><line class="cls-2" x1="0.28" y1="490.67" x2="510.52" y2="490.67"/><line class="cls-2" x1="0.28" y1="493.51" x2="510.52" y2="493.51"/><line class="cls-3" x1="0.28" y1="496.34" x2="510.52" y2="496.34"/><line class="cls-2" x1="0.28" y1="499.18" x2="510.52" y2="499.18"/><line class="cls-2" x1="0.28" y1="502.01" x2="510.52" y2="502.01"/><line class="cls-2" x1="0.28" y1="504.84" x2="510.52" y2="504.84"/><line class="cls-2" x1="0.28" y1="507.68" x2="510.52" y2="507.68"/><line class="cls-1" x1="0.28" y1="510.52" x2="510.52" y2="510.52"/><line class="cls-2" x1="0.28" y1="513.36" x2="510.52" y2="513.36"/><line class="cls-2" x1="0.28" y1="516.18" x2="510.52" y2="516.18"/><line class="cls-2" x1="0.28" y1="519.02" x2="510.52" y2="519.02"/><line class="cls-2" x1="0.28" y1="521.85" x2="510.52" y2="521.85"/><line class="cls-3" x1="0.28" y1="524.7" x2="510.52" y2="524.7"/><line class="cls-2" x1="0.28" y1="527.52" x2="510.52" y2="527.52"/><line class="cls-2" x1="0.28" y1="530.36" x2="510.52" y2="530.36"/><line class="cls-2" x1="0.28" y1="533.19" x2="510.52" y2="533.19"/><line class="cls-2" x1="0.28" y1="536.03" x2="510.52" y2="536.03"/><line class="cls-1" x1="0.28" y1="538.87" x2="510.52" y2="538.87"/><line class="cls-2" x1="0.28" y1="541.71" x2="510.52" y2="541.71"/><line class="cls-2" x1="0.28" y1="544.53" x2="510.52" y2="544.53"/><line class="cls-2" x1="0.28" y1="547.36" x2="510.52" y2="547.36"/><line class="cls-2" x1="0.28" y1="550.2" x2="510.52" y2="550.2"/><line class="cls-3" x1="0.28" y1="553.03" x2="510.52" y2="553.03"/><line class="cls-2" x1="0.28" y1="555.87" x2="510.52" y2="555.87"/><line class="cls-2" x1="0.28" y1="558.7" x2="510.52" y2="558.7"/><line class="cls-2" x1="0.28" y1="561.54" x2="510.52" y2="561.54"/><line class="cls-2" x1="0.28" y1="564.37" x2="510.52" y2="564.37"/><line class="cls-1" x1="0.28" y1="567.21" x2="510.52" y2="567.21"/><line class="cls-2" x1="0.28" y1="570.05" x2="510.52" y2="570.05"/><line class="cls-2" x1="0.28" y1="572.89" x2="510.52" y2="572.89"/><line class="cls-2" x1="0.28" y1="575.72" x2="510.52" y2="575.72"/><line class="cls-2" x1="0.28" y1="578.56" x2="510.52" y2="578.56"/><line class="cls-3" x1="0.28" y1="581.39" x2="510.52" y2="581.39"/><line class="cls-2" x1="0.28" y1="584.22" x2="510.52" y2="584.22"/><line class="cls-2" x1="0.28" y1="587.06" x2="510.52" y2="587.06"/><line class="cls-2" x1="0.28" y1="589.89" x2="510.52" y2="589.89"/><line class="cls-2" x1="0.28" y1="592.73" x2="510.52" y2="592.73"/><line class="cls-1" x1="0.28" y1="595.56" x2="510.52" y2="595.56"/><line class="cls-2" x1="0.28" y1="598.4" x2="510.52" y2="598.4"/><line class="cls-2" x1="0.28" y1="601.23" x2="510.52" y2="601.23"/><line class="cls-2" x1="0.28" y1="604.06" x2="510.52" y2="604.06"/><line class="cls-2" x1="0.28" y1="606.9" x2="510.52" y2="606.9"/><line class="cls-3" x1="0.28" y1="609.74" x2="510.52" y2="609.74"/><line class="cls-2" x1="0.28" y1="612.56" x2="510.52" y2="612.56"/><line class="cls-2" x1="0.28" y1="615.4" x2="510.52" y2="615.4"/><line class="cls-2" x1="0.28" y1="618.23" x2="510.52" y2="618.23"/><line class="cls-2" x1="0.28" y1="621.07" x2="510.52" y2="621.07"/><line class="cls-1" x1="0.28" y1="623.91" x2="510.52" y2="623.91"/><line class="cls-2" x1="0.28" y1="626.74" x2="510.52" y2="626.74"/><line class="cls-2" x1="0.28" y1="629.58" x2="510.52" y2="629.58"/><line class="cls-2" x1="0.28" y1="632.41" x2="510.52" y2="632.41"/><line class="cls-2" x1="0.28" y1="635.25" x2="510.52" y2="635.25"/><line class="cls-3" x1="0.28" y1="638.08" x2="510.52" y2="638.08"/><line class="cls-2" x1="0.28" y1="640.92" x2="510.52" y2="640.92"/><line class="cls-2" x1="0.28" y1="643.75" x2="510.52" y2="643.75"/><line class="cls-2" x1="0.28" y1="646.59" x2="510.52" y2="646.59"/><line class="cls-2" x1="0.28" y1="649.42" x2="510.52" y2="649.42"/><line class="cls-1" x1="0.28" y1="652.26" x2="510.52" y2="652.26"/><line class="cls-2" x1="0.28" y1="655.09" x2="510.52" y2="655.09"/><line class="cls-2" x1="0.28" y1="657.92" x2="510.52" y2="657.92"/><line class="cls-2" x1="0.28" y1="660.76" x2="510.52" y2="660.76"/><line class="cls-2" x1="0.28" y1="663.59" x2="510.52" y2="663.59"/><line class="cls-3" x1="0.28" y1="666.42" x2="510.52" y2="666.42"/><line class="cls-2" x1="0.28" y1="669.26" x2="510.52" y2="669.26"/><line class="cls-2" x1="0.28" y1="672.09" x2="510.52" y2="672.09"/><line class="cls-2" x1="0.28" y1="674.92" x2="510.52" y2="674.92"/><line class="cls-2" x1="0.28" y1="677.76" x2="510.52" y2="677.76"/><line class="cls-1" x1="0.28" y1="680.59" x2="510.52" y2="680.59"/><line class="cls-2" x1="0.28" y1="683.44" x2="510.52" y2="683.44"/><line class="cls-2" x1="0.28" y1="686.27" x2="510.52" y2="686.27"/><line class="cls-2" x1="0.28" y1="689.11" x2="510.52" y2="689.11"/><line class="cls-2" x1="0.28" y1="691.94" x2="510.52" y2="691.94"/><line class="cls-3" x1="0.28" y1="694.78" x2="510.52" y2="694.78"/><line class="cls-2" x1="0.28" y1="697.61" x2="510.52" y2="697.61"/><line class="cls-2" x1="0.28" y1="700.45" x2="510.52" y2="700.45"/><line class="cls-2" x1="0.28" y1="703.28" x2="510.52" y2="703.28"/><line class="cls-2" x1="0.28" y1="706.11" x2="510.52" y2="706.11"/><line class="cls-1" x1="0.28" y1="708.95" x2="510.52" y2="708.95"/><line class="cls-2" x1="0.28" y1="711.78" x2="510.52" y2="711.78"/><line class="cls-2" x1="0.28" y1="714.62" x2="510.52" y2="714.62"/><line class="cls-2" x1="0.28" y1="717.45" x2="510.52" y2="717.45"/><line class="cls-2" x1="0.28" y1="720.28" x2="510.52" y2="720.28"/><line class="cls-3" x1="0.28" y1="723.12" x2="510.52" y2="723.12"/><line class="cls-2" x1="0.28" y1="725.96" x2="510.52" y2="725.96"/><line class="cls-2" x1="0.28" y1="728.79" x2="510.52" y2="728.79"/><line class="cls-2" x1="0.28" y1="731.63" x2="510.52" y2="731.63"/><line class="cls-2" x1="0.28" y1="734.46" x2="510.52" y2="734.46"/><line class="cls-1" x1="0.28" y1="737.3" x2="510.52" y2="737.3"/><line class="cls-2" x1="0.28" y1="740.13" x2="510.52" y2="740.13"/><line class="cls-2" x1="0.28" y1="742.97" x2="510.52" y2="742.97"/><line class="cls-2" x1="0.28" y1="745.8" x2="510.52" y2="745.8"/><line class="cls-2" x1="0.28" y1="748.63" x2="510.52" y2="748.63"/><line class="cls-3" x1="0.28" y1="751.47" x2="510.52" y2="751.47"/><line class="cls-2" x1="0.28" y1="754.3" x2="510.52" y2="754.3"/><line class="cls-2" x1="0.28" y1="757.13" x2="510.52" y2="757.13"/><line class="cls-2" x1="0.28" y1="759.97" x2="510.52" y2="759.97"/><line class="cls-2" x1="0.28" y1="762.81" x2="510.52" y2="762.81"/><line class="cls-1" x1="0.28" y1="765.64" x2="510.52" y2="765.64"/><line class="cls-2" x1="0.28" y1="768.48" x2="510.52" y2="768.48"/><line class="cls-2" x1="0.28" y1="771.31" x2="510.52" y2="771.31"/><line class="cls-2" x1="0.28" y1="774.15" x2="510.52" y2="774.15"/><line class="cls-2" x1="0.28" y1="776.98" x2="510.52" y2="776.98"/><line class="cls-3" x1="0.28" y1="779.82" x2="510.52" y2="779.82"/><line class="cls-2" x1="0.28" y1="782.65" x2="510.52" y2="782.65"/><line class="cls-2" x1="0.28" y1="785.48" x2="510.52" y2="785.48"/><line class="cls-2" x1="0.28" y1="788.32" x2="510.52" y2="788.32"/><line class="cls-2" x1="0.28" y1="791.15" x2="510.52" y2="791.15"/><line class="cls-1" x1="0.28" y1="793.99" x2="510.52" y2="793.99"/><line class="cls-1" x1="0.28" y1="0.28" x2="0.28" y2="793.99"/><line class="cls-4" x1="3.13" y1="0.28" x2="3.13" y2="793.99"/><line class="cls-4" x1="5.96" y1="0.28" x2="5.96" y2="793.99"/><line class="cls-4" x1="8.79" y1="0.28" x2="8.79" y2="793.99"/><line class="cls-4" x1="11.63" y1="0.28" x2="11.63" y2="793.99"/><line class="cls-3" x1="14.47" y1="0.28" x2="14.47" y2="793.99"/><line class="cls-4" x1="17.29" y1="0.28" x2="17.29" y2="793.99"/><line class="cls-4" x1="20.13" y1="0.28" x2="20.13" y2="793.99"/><line class="cls-4" x1="22.96" y1="0.28" x2="22.96" y2="793.99"/><line class="cls-4" x1="25.79" y1="0.28" x2="25.79" y2="793.99"/><line class="cls-1" x1="28.64" y1="0.28" x2="28.64" y2="793.99"/><line class="cls-4" x1="31.47" y1="0.28" x2="31.47" y2="793.99"/><line class="cls-4" x1="34.31" y1="0.28" x2="34.31" y2="793.99"/><line class="cls-4" x1="37.14" y1="0.28" x2="37.14" y2="793.99"/><line class="cls-4" x1="39.97" y1="0.28" x2="39.97" y2="793.99"/><line class="cls-3" x1="42.81" y1="0.28" x2="42.81" y2="793.99"/><line class="cls-4" x1="45.65" y1="0.28" x2="45.65" y2="793.99"/><line class="cls-4" x1="48.48" y1="0.28" x2="48.48" y2="793.99"/><line class="cls-4" x1="51.32" y1="0.28" x2="51.32" y2="793.99"/><line class="cls-4" x1="54.15" y1="0.28" x2="54.15" y2="793.99"/><line class="cls-1" x1="56.99" y1="0.28" x2="56.99" y2="793.99"/><line class="cls-4" x1="59.82" y1="0.28" x2="59.82" y2="793.99"/><line class="cls-4" x1="62.65" y1="0.28" x2="62.65" y2="793.99"/><line class="cls-4" x1="65.49" y1="0.28" x2="65.49" y2="793.99"/><line class="cls-4" x1="68.32" y1="0.28" x2="68.32" y2="793.99"/><line class="cls-3" x1="71.15" y1="0.28" x2="71.15" y2="793.99"/><line class="cls-4" x1="73.99" y1="0.28" x2="73.99" y2="793.99"/><line class="cls-4" x1="76.82" y1="0.28" x2="76.82" y2="793.99"/><line class="cls-4" x1="79.65" y1="0.28" x2="79.65" y2="793.99"/><line class="cls-4" x1="82.49" y1="0.28" x2="82.49" y2="793.99"/><line class="cls-1" x1="85.32" y1="0.28" x2="85.32" y2="793.99"/><line class="cls-4" x1="88.17" y1="0.28" x2="88.17" y2="793.99"/><line class="cls-4" x1="91" y1="0.28" x2="91" y2="793.99"/><line class="cls-4" x1="93.84" y1="0.28" x2="93.84" y2="793.99"/><line class="cls-4" x1="96.67" y1="0.28" x2="96.67" y2="793.99"/><line class="cls-3" x1="99.51" y1="0.28" x2="99.51" y2="793.99"/><line class="cls-4" x1="102.34" y1="0.28" x2="102.34" y2="793.99"/><line class="cls-4" x1="105.17" y1="0.28" x2="105.17" y2="793.99"/><line class="cls-4" x1="108.01" y1="0.28" x2="108.01" y2="793.99"/><line class="cls-4" x1="110.84" y1="0.28" x2="110.84" y2="793.99"/><line class="cls-1" x1="113.68" y1="0.28" x2="113.68" y2="793.99"/><line class="cls-4" x1="116.51" y1="0.28" x2="116.51" y2="793.99"/><line class="cls-4" x1="119.35" y1="0.28" x2="119.35" y2="793.99"/><line class="cls-4" x1="122.18" y1="0.28" x2="122.18" y2="793.99"/><line class="cls-4" x1="125.01" y1="0.28" x2="125.01" y2="793.99"/><line class="cls-3" x1="127.85" y1="0.28" x2="127.85" y2="793.99"/><line class="cls-4" x1="130.68" y1="0.28" x2="130.68" y2="793.99"/><line class="cls-4" x1="133.51" y1="0.28" x2="133.51" y2="793.99"/><line class="cls-4" x1="136.35" y1="0.28" x2="136.35" y2="793.99"/><line class="cls-4" x1="139.18" y1="0.28" x2="139.18" y2="793.99"/><line class="cls-1" x1="142.02" y1="0.28" x2="142.02" y2="793.99"/><line class="cls-4" x1="144.85" y1="0.28" x2="144.85" y2="793.99"/><line class="cls-4" x1="147.68" y1="0.28" x2="147.68" y2="793.99"/><line class="cls-4" x1="150.52" y1="0.28" x2="150.52" y2="793.99"/><line class="cls-4" x1="153.35" y1="0.28" x2="153.35" y2="793.99"/><line class="cls-3" x1="156.2" y1="0.28" x2="156.2" y2="793.99"/><line class="cls-4" x1="159.02" y1="0.28" x2="159.02" y2="793.99"/><line class="cls-4" x1="161.86" y1="0.28" x2="161.86" y2="793.99"/><line class="cls-4" x1="164.69" y1="0.28" x2="164.69" y2="793.99"/><line class="cls-4" x1="167.53" y1="0.28" x2="167.53" y2="793.99"/><line class="cls-1" x1="170.37" y1="0.28" x2="170.37" y2="793.99"/><line class="cls-4" x1="173.21" y1="0.28" x2="173.21" y2="793.99"/><line class="cls-4" x1="176.04" y1="0.28" x2="176.04" y2="793.99"/><line class="cls-4" x1="178.88" y1="0.28" x2="178.88" y2="793.99"/><line class="cls-4" x1="181.71" y1="0.28" x2="181.71" y2="793.99"/><line class="cls-3" x1="184.54" y1="0.28" x2="184.54" y2="793.99"/><line class="cls-4" x1="187.38" y1="0.28" x2="187.38" y2="793.99"/><line class="cls-4" x1="190.21" y1="0.28" x2="190.21" y2="793.99"/><line class="cls-4" x1="193.04" y1="0.28" x2="193.04" y2="793.99"/><line class="cls-4" x1="195.88" y1="0.28" x2="195.88" y2="793.99"/><line class="cls-1" x1="198.71" y1="0.28" x2="198.71" y2="793.99"/><line class="cls-4" x1="201.55" y1="0.28" x2="201.55" y2="793.99"/><line class="cls-4" x1="204.39" y1="0.28" x2="204.39" y2="793.99"/><line class="cls-4" x1="207.21" y1="0.28" x2="207.21" y2="793.99"/><line class="cls-4" x1="210.05" y1="0.28" x2="210.05" y2="793.99"/><line class="cls-3" x1="212.89" y1="0.28" x2="212.89" y2="793.99"/><line class="cls-4" x1="215.73" y1="0.28" x2="215.73" y2="793.99"/><line class="cls-4" x1="218.55" y1="0.28" x2="218.55" y2="793.99"/><line class="cls-4" x1="221.39" y1="0.28" x2="221.39" y2="793.99"/><line class="cls-4" x1="224.22" y1="0.28" x2="224.22" y2="793.99"/><line class="cls-1" x1="227.05" y1="0.28" x2="227.05" y2="793.99"/><line class="cls-4" x1="229.89" y1="0.28" x2="229.89" y2="793.99"/><line class="cls-4" x1="232.72" y1="0.28" x2="232.72" y2="793.99"/><line class="cls-4" x1="235.56" y1="0.28" x2="235.56" y2="793.99"/><line class="cls-4" x1="238.39" y1="0.28" x2="238.39" y2="793.99"/><line class="cls-3" x1="241.24" y1="0.28" x2="241.24" y2="793.99"/><line class="cls-4" x1="244.07" y1="0.28" x2="244.07" y2="793.99"/><line class="cls-4" x1="246.9" y1="0.28" x2="246.9" y2="793.99"/><line class="cls-4" x1="249.73" y1="0.28" x2="249.73" y2="793.99"/><line class="cls-4" x1="252.57" y1="0.28" x2="252.57" y2="793.99"/><line class="cls-1" x1="255.4" y1="0.28" x2="255.4" y2="793.99"/><line class="cls-4" x1="258.24" y1="0.28" x2="258.24" y2="793.99"/><line class="cls-4" x1="261.07" y1="0.28" x2="261.07" y2="793.99"/><line class="cls-4" x1="263.9" y1="0.28" x2="263.9" y2="793.99"/><line class="cls-4" x1="266.74" y1="0.28" x2="266.74" y2="793.99"/><line class="cls-3" x1="269.58" y1="0.28" x2="269.58" y2="793.99"/><line class="cls-4" x1="272.42" y1="0.28" x2="272.42" y2="793.99"/><line class="cls-4" x1="275.24" y1="0.28" x2="275.24" y2="793.99"/><line class="cls-4" x1="278.08" y1="0.28" x2="278.08" y2="793.99"/><line class="cls-4" x1="280.91" y1="0.28" x2="280.91" y2="793.99"/><line class="cls-1" x1="283.76" y1="0.28" x2="283.76" y2="793.99"/><line class="cls-4" x1="286.58" y1="0.28" x2="286.58" y2="793.99"/><line class="cls-4" x1="289.42" y1="0.28" x2="289.42" y2="793.99"/><line class="cls-4" x1="292.25" y1="0.28" x2="292.25" y2="793.99"/><line class="cls-4" x1="295.09" y1="0.28" x2="295.09" y2="793.99"/><line class="cls-3" x1="297.92" y1="0.28" x2="297.92" y2="793.99"/><line class="cls-4" x1="300.77" y1="0.28" x2="300.77" y2="793.99"/><line class="cls-4" x1="303.6" y1="0.28" x2="303.6" y2="793.99"/><line class="cls-4" x1="306.42" y1="0.28" x2="306.42" y2="793.99"/><line class="cls-4" x1="309.26" y1="0.28" x2="309.26" y2="793.99"/><line class="cls-1" x1="312.1" y1="0.28" x2="312.1" y2="793.99"/><line class="cls-4" x1="314.93" y1="0.28" x2="314.93" y2="793.99"/><line class="cls-4" x1="317.76" y1="0.28" x2="317.76" y2="793.99"/><line class="cls-4" x1="320.6" y1="0.28" x2="320.6" y2="793.99"/><line class="cls-4" x1="323.43" y1="0.28" x2="323.43" y2="793.99"/><line class="cls-3" x1="326.27" y1="0.28" x2="326.27" y2="793.99"/><line class="cls-4" x1="329.11" y1="0.28" x2="329.11" y2="793.99"/><line class="cls-4" x1="331.95" y1="0.28" x2="331.95" y2="793.99"/><line class="cls-4" x1="334.77" y1="0.28" x2="334.77" y2="793.99"/><line class="cls-4" x1="337.61" y1="0.28" x2="337.61" y2="793.99"/><line class="cls-1" x1="340.45" y1="0.28" x2="340.45" y2="793.99"/><line class="cls-4" x1="343.29" y1="0.28" x2="343.29" y2="793.99"/><line class="cls-4" x1="346.11" y1="0.28" x2="346.11" y2="793.99"/><line class="cls-4" x1="348.94" y1="0.28" x2="348.94" y2="793.99"/><line class="cls-4" x1="351.78" y1="0.28" x2="351.78" y2="793.99"/><line class="cls-3" x1="354.61" y1="0.28" x2="354.61" y2="793.99"/><line class="cls-4" x1="357.45" y1="0.28" x2="357.45" y2="793.99"/><line class="cls-4" x1="360.28" y1="0.28" x2="360.28" y2="793.99"/><line class="cls-4" x1="363.12" y1="0.28" x2="363.12" y2="793.99"/><line class="cls-4" x1="365.95" y1="0.28" x2="365.95" y2="793.99"/><line class="cls-1" x1="368.8" y1="0.28" x2="368.8" y2="793.99"/><line class="cls-4" x1="371.63" y1="0.28" x2="371.63" y2="793.99"/><line class="cls-4" x1="374.46" y1="0.28" x2="374.46" y2="793.99"/><line class="cls-4" x1="377.29" y1="0.28" x2="377.29" y2="793.99"/><line class="cls-4" x1="380.13" y1="0.28" x2="380.13" y2="793.99"/><line class="cls-3" x1="382.96" y1="0.28" x2="382.96" y2="793.99"/><line class="cls-4" x1="385.8" y1="0.28" x2="385.8" y2="793.99"/><line class="cls-4" x1="388.64" y1="0.28" x2="388.64" y2="793.99"/><line class="cls-4" x1="391.46" y1="0.28" x2="391.46" y2="793.99"/><line class="cls-4" x1="394.3" y1="0.28" x2="394.3" y2="793.99"/><line class="cls-1" x1="397.14" y1="0.28" x2="397.14" y2="793.99"/><line class="cls-4" x1="399.98" y1="0.28" x2="399.98" y2="793.99"/><line class="cls-4" x1="402.8" y1="0.28" x2="402.8" y2="793.99"/><line class="cls-4" x1="405.64" y1="0.28" x2="405.64" y2="793.99"/><line class="cls-4" x1="408.47" y1="0.28" x2="408.47" y2="793.99"/><line class="cls-3" x1="411.32" y1="0.28" x2="411.32" y2="793.99"/><line class="cls-4" x1="414.14" y1="0.28" x2="414.14" y2="793.99"/><line class="cls-4" x1="416.98" y1="0.28" x2="416.98" y2="793.99"/><line class="cls-4" x1="419.81" y1="0.28" x2="419.81" y2="793.99"/><line class="cls-4" x1="422.65" y1="0.28" x2="422.65" y2="793.99"/><line class="cls-1" x1="425.49" y1="0.28" x2="425.49" y2="793.99"/><line class="cls-4" x1="428.32" y1="0.28" x2="428.32" y2="793.99"/><line class="cls-4" x1="431.15" y1="0.28" x2="431.15" y2="793.99"/><line class="cls-4" x1="433.98" y1="0.28" x2="433.98" y2="793.99"/><line class="cls-4" x1="436.82" y1="0.28" x2="436.82" y2="793.99"/><line class="cls-3" x1="439.65" y1="0.28" x2="439.65" y2="793.99"/><line class="cls-4" x1="442.49" y1="0.28" x2="442.49" y2="793.99"/><line class="cls-4" x1="445.32" y1="0.28" x2="445.32" y2="793.99"/><line class="cls-4" x1="448.16" y1="0.28" x2="448.16" y2="793.99"/><line class="cls-4" x1="450.99" y1="0.28" x2="450.99" y2="793.99"/><line class="cls-1" x1="453.83" y1="0.28" x2="453.83" y2="793.99"/><line class="cls-4" x1="456.67" y1="0.28" x2="456.67" y2="793.99"/><line class="cls-4" x1="459.51" y1="0.28" x2="459.51" y2="793.99"/><line class="cls-4" x1="462.34" y1="0.28" x2="462.34" y2="793.99"/><line class="cls-4" x1="465.17" y1="0.28" x2="465.17" y2="793.99"/><line class="cls-3" x1="468" y1="0.28" x2="468" y2="793.99"/><line class="cls-4" x1="470.83" y1="0.28" x2="470.83" y2="793.99"/><line class="cls-4" x1="473.68" y1="0.28" x2="473.68" y2="793.99"/><line class="cls-4" x1="476.51" y1="0.28" x2="476.51" y2="793.99"/><line class="cls-4" x1="479.35" y1="0.28" x2="479.35" y2="793.99"/><line class="cls-1" x1="482.18" y1="0.28" x2="482.18" y2="793.99"/><line class="cls-4" x1="485.01" y1="0.28" x2="485.01" y2="793.99"/><line class="cls-4" x1="487.85" y1="0.28" x2="487.85" y2="793.99"/><line class="cls-4" x1="490.69" y1="0.28" x2="490.69" y2="793.99"/><line class="cls-4" x1="493.52" y1="0.28" x2="493.52" y2="793.99"/><line class="cls-3" x1="496.36" y1="0.28" x2="496.36" y2="793.99"/><line class="cls-4" x1="499.19" y1="0.28" x2="499.19" y2="793.99"/><line class="cls-4" x1="502.03" y1="0.28" x2="502.03" y2="793.99"/><line class="cls-4" x1="504.86" y1="0.28" x2="504.86" y2="793.99"/><line class="cls-4" x1="507.69" y1="0.28" x2="507.69" y2="793.99"/><line class="cls-1" x1="510.52" y1="0.28" x2="510.52" y2="793.99"/></svg>