<svg id="Ebene_1" data-name="Ebene 1" xmlns="http://www.w3.org/2000/svg" viewBox="0 0 760.6 319.25"><defs><style>.cls-1,.cls-2,.cls-3,.cls-4,.cls-5{fill:none;stroke-linecap:square;stroke-miterlimit:10;}.cls-1,.cls-2,.cls-3,.cls-4{stroke:#999;}.cls-1{stroke-width:0.75px;}.cls-2{stroke-width:0.5px;}.cls-3{stroke-width:0.57px;}.cls-4{stroke-width:0.28px;}.cls-5{stroke:#1d1d1b;}.cls-6,.cls-7{fill:#1d1d1b;}.cls-7{font-size:12px;font-family:MinionPro-Capt, Minion Pro;}.cls-8{letter-spacing:-0.01em;}.cls-9{letter-spacing:0em;}</style></defs><line class="cls-1" x1="23.16" y1="48.02" x2="23.16" y2="303.14"/><line class="cls-2" x1="102.8" y1="19.68" x2="102.8" y2="303.14"/><line class="cls-2" x1="149.39" y1="19.68" x2="149.39" y2="303.14"/><line class="cls-2" x1="182.45" y1="19.68" x2="182.45" y2="303.14"/><line class="cls-2" x1="208.09" y1="19.68" x2="208.09" y2="303.14"/><line class="cls-2" x1="229.03" y1="19.68" x2="229.03" y2="303.14"/><line class="cls-2" x1="246.75" y1="19.68" x2="246.75" y2="303.14"/><line class="cls-2" x1="262.09" y1="19.68" x2="262.09" y2="303.14"/><line class="cls-2" x1="275.62" y1="19.68" x2="275.62" y2="303.14"/><line class="cls-1" x1="287.73" y1="19.68" x2="287.73" y2="303.14"/><line class="cls-2" x1="367.37" y1="19.68" x2="367.37" y2="303.14"/><line class="cls-2" x1="413.96" y1="19.68" x2="413.96" y2="303.14"/><line class="cls-2" x1="447.01" y1="19.68" x2="447.01" y2="303.14"/><line class="cls-2" x1="472.65" y1="19.68" x2="472.65" y2="303.14"/><line class="cls-2" x1="493.6" y1="19.68" x2="493.6" y2="303.14"/><line class="cls-2" x1="511.31" y1="19.68" x2="511.31" y2="303.14"/><line class="cls-2" x1="526.66" y1="19.68" x2="526.66" y2="303.14"/><line class="cls-2" x1="540.19" y1="19.68" x2="540.19" y2="303.14"/><line class="cls-1" x1="552.3" y1="19.68" x2="552.3" y2="303.14"/><line class="cls-2" x1="631.94" y1="19.68" x2="631.94" y2="303.14"/><line class="cls-2" x1="678.53" y1="19.68" x2="678.53" y2="303.14"/><line class="cls-2" x1="711.58" y1="19.68" x2="711.58" y2="303.14"/><line class="cls-3" x1="711.58" y1="48.02" x2="23.16" y2="48.02"/><line class="cls-4" x1="711.58" y1="62.19" x2="23.16" y2="62.19"/><line class="cls-3" x1="711.58" y1="76.37" x2="23.16" y2="76.37"/><line class="cls-4" x1="711.58" y1="90.54" x2="23.16" y2="90.54"/><line class="cls-3" x1="711.58" y1="104.71" x2="23.16" y2="104.71"/><line class="cls-4" x1="711.58" y1="118.89" x2="23.16" y2="118.89"/><line class="cls-3" x1="711.58" y1="133.06" x2="23.16" y2="133.06"/><line class="cls-4" x1="711.58" y1="147.23" x2="23.16" y2="147.23"/><line class="cls-3" x1="711.58" y1="161.41" x2="23.16" y2="161.41"/><line class="cls-4" x1="711.58" y1="175.58" x2="23.16" y2="175.58"/><line class="cls-3" x1="711.58" y1="189.75" x2="23.16" y2="189.75"/><line class="cls-4" x1="711.58" y1="203.93" x2="23.16" y2="203.93"/><line class="cls-3" x1="711.58" y1="218.1" x2="23.16" y2="218.1"/><line class="cls-4" x1="711.58" y1="232.27" x2="23.16" y2="232.27"/><line class="cls-3" x1="711.58" y1="246.45" x2="23.16" y2="246.45"/><line class="cls-4" x1="711.58" y1="260.62" x2="23.16" y2="260.62"/><line class="cls-3" x1="711.58" y1="274.79" x2="23.16" y2="274.79"/><line class="cls-4" x1="711.58" y1="288.97" x2="23.16" y2="288.97"/><line class="cls-3" x1="711.58" y1="303.14" x2="23.16" y2="303.14"/><line class="cls-5" x1="23.16" y1="303.14" x2="729.07" y2="303.14"/><path class="cls-6" d="M727.28,303.14l-2.19-3.6.12-.08,5.87,2.33,6.14,1.35-6.14,1.36-5.87,2.33-.12-.06Z"/><text class="cls-7" transform="translate(717.59 294.84)">f in k<tspan class="cls-8" x="25.5" y="0">H</tspan><tspan x="34.67" y="0">z</tspan></text><text class="cls-7" transform="translate(29.36 12.15)">A in <tspan class="cls-9" x="24.2" y="0">d</tspan><tspan x="30.61" y="0">b</tspan></text><line class="cls-5" x1="23.16" y1="218.1" x2="26" y2="218.1"/><line class="cls-5" x1="23.16" y1="189.75" x2="26" y2="189.75"/><line class="cls-5" x1="23.16" y1="161.41" x2="26" y2="161.41"/><line class="cls-5" x1="23.16" y1="133.06" x2="26" y2="133.06"/><line class="cls-5" x1="23.16" y1="104.71" x2="26" y2="104.71"/><line class="cls-5" x1="23.16" y1="76.37" x2="26" y2="76.37"/><line class="cls-5" x1="23.16" y1="48.02" x2="26" y2="48.02"/><line class="cls-5" x1="23.16" y1="246.45" x2="26" y2="246.45"/><line class="cls-5" x1="23.16" y1="274.79" x2="26" y2="274.79"/><line class="cls-5" x1="208.09" y1="303.14" x2="208.09" y2="300.31"/><line class="cls-5" x1="182.45" y1="303.14" x2="182.45" y2="300.31"/><line class="cls-5" x1="149.39" y1="303.14" x2="149.39" y2="300.31"/><line class="cls-5" x1="102.8" y1="303.14" x2="102.8" y2="300.31"/><line class="cls-5" x1="262.09" y1="303.14" x2="262.09" y2="300.31"/><line class="cls-5" x1="246.75" y1="303.14" x2="246.75" y2="300.31"/><line class="cls-5" x1="229.03" y1="303.14" x2="229.03" y2="300.31"/><line class="cls-5" x1="287.73" y1="303.14" x2="287.73" y2="300.31"/><line class="cls-5" x1="275.62" y1="303.14" x2="275.62" y2="300.31"/><line class="cls-5" x1="493.6" y1="303.14" x2="493.6" y2="300.31"/><line class="cls-5" x1="472.65" y1="303.14" x2="472.65" y2="300.31"/><line class="cls-5" x1="447.01" y1="303.14" x2="447.01" y2="300.31"/><line class="cls-5" x1="413.96" y1="303.14" x2="413.96" y2="300.31"/><line class="cls-5" x1="367.37" y1="303.14" x2="367.37" y2="300.31"/><line class="cls-5" x1="631.94" y1="303.14" x2="631.94" y2="300.31"/><line class="cls-5" x1="552.3" y1="303.14" x2="552.3" y2="300.31"/><line class="cls-5" x1="540.19" y1="303.14" x2="540.19" y2="300.31"/><line class="cls-5" x1="526.66" y1="303.14" x2="526.66" y2="300.31"/><line class="cls-5" x1="511.31" y1="303.14" x2="511.31" y2="300.31"/><line class="cls-5" x1="711.58" y1="303.14" x2="711.58" y2="300.31"/><line class="cls-5" x1="678.53" y1="303.14" x2="678.53" y2="300.31"/><text class="cls-7" transform="translate(95.54 314.82)">0,2</text><text class="cls-7" transform="translate(142.13 314.82)">0,3</text><text class="cls-7" transform="translate(175.19 314.82)">0,4</text><text class="cls-7" transform="translate(200.83 314.82)">0,5</text><text class="cls-7" transform="translate(221.77 314.82)">0,6</text><text class="cls-7" transform="translate(254.83 314.82)">0,8</text><text class="cls-7" transform="translate(284.81 314.82)">1</text><text class="cls-7" transform="translate(16.53 314.82)">0,1</text><text class="cls-7" transform="translate(364.45 314.82)">2</text><text class="cls-7" transform="translate(411.04 314.82)">3</text><text class="cls-7" transform="translate(444.1 314.82)">4</text><text class="cls-7" transform="translate(469.74 314.82)">5</text><text class="cls-7" transform="translate(490.68 314.82)">6</text><text class="cls-7" transform="translate(523.74 314.82)">8</text><text class="cls-7" transform="translate(546.46 314.82)">10</text><text class="cls-7" transform="translate(626.1 314.82)">20</text><text class="cls-7" transform="translate(672.69 314.82)">30</text><text class="cls-7" transform="translate(8.98 23.58)">0</text><text class="cls-7" transform="translate(6.79 51.93)">-5</text><text class="cls-7" transform="translate(3.87 80.27)">-10</text><text class="cls-7" transform="translate(3.87 108.62)">-15</text><text class="cls-7" transform="translate(3.87 136.97)">-20</text><text class="cls-7" transform="translate(3.87 165.31)">-25</text><text class="cls-7" transform="translate(3.87 193.66)">-30</text><text class="cls-7" transform="translate(3.87 222.01)">-35</text><text class="cls-7" transform="translate(3.87 250.35)">-40</text><line class="cls-3" x1="711.33" y1="19.68" x2="22.91" y2="19.68"/><line class="cls-4" x1="711.33" y1="33.85" x2="22.91" y2="33.85"/><line class="cls-5" x1="23.16" y1="19.68" x2="26" y2="19.68"/><line class="cls-5" x1="23.16" y1="303.14" x2="23.16" y2="8.15"/><path class="cls-6" d="M23.16,10l-3.6,2.19L19.48,12l2.33-5.88L23.16,0l1.35,6.14L26.85,12l-.06.12Z"/><text class="cls-7" transform="translate(3.87 278.69)">-45</text></svg>