<?xml version="1.0" encoding="utf-8"?>
<!-- Generator: Adobe Illustrator 25.2.3, SVG Export Plug-In . SVG Version: 6.00 Build 0)  -->
<svg version="1.1" id="Ebene_1" xmlns="http://www.w3.org/2000/svg" xmlns:xlink="http://www.w3.org/1999/xlink" x="0px" y="0px"
	 viewBox="0 0 485 274" style="enable-background:new 0 0 485 274;" xml:space="preserve">
<style type="text/css">
	.st0{clip-path:url(#SVGID_2_);fill:none;}
	
		.st1{clip-path:url(#SVGID_2_);fill:none;stroke:#000000;stroke-width:2;stroke-linecap:round;stroke-linejoin:round;stroke-miterlimit:10;}
	.st2{clip-path:url(#SVGID_2_);}
	.st3{clip-path:url(#SVGID_2_);fill:none;stroke:#000000;stroke-width:2;stroke-miterlimit:10;}
	
		.st4{clip-path:url(#SVGID_2_);fill:none;stroke:#000000;stroke-width:0.5;stroke-linecap:round;stroke-linejoin:round;stroke-miterlimit:10;}
	.st5{font-family:'Times-Roman';}
	.st6{font-size:14px;}
</style>
<g>
	<defs>
		<rect id="SVGID_1_" width="485" height="274"/>
	</defs>
	<clipPath id="SVGID_2_">
		<use xlink:href="#SVGID_1_"  style="overflow:visible;"/>
	</clipPath>
	<rect x="-759" y="-529" class="st0" width="1263.35" height="866"/>
	<line class="st1" x1="64.02" y1="236.35" x2="423.39" y2="236.35"/>
	<polygon class="st2" points="426.39,236.35 421.59,234.55 423.39,236.35 421.59,238.15 	"/>
	<polygon class="st3" points="426.39,236.35 421.59,234.55 423.39,236.35 421.59,238.15 	"/>
	<line class="st4" x1="64.02" y1="180.17" x2="404.18" y2="179.66"/>
	<line class="st4" x1="64.02" y1="151.82" x2="404.18" y2="151.32"/>
	<line class="st4" x1="64.02" y1="95.13" x2="404.18" y2="94.62"/>
	<line class="st4" x1="64.02" y1="38.44" x2="404.18" y2="37.93"/>
	<line class="st4" x1="64.02" y1="66.78" x2="404.18" y2="66.28"/>
	<line class="st4" x1="69.69" y1="233.52" x2="69.69" y2="239.19"/>
	<line class="st4" x1="75.36" y1="233.52" x2="75.36" y2="239.19"/>
	<line class="st4" x1="81.03" y1="233.52" x2="81.03" y2="239.19"/>
	<line class="st4" x1="86.7" y1="233.52" x2="86.7" y2="239.19"/>
	<line class="st4" x1="126.39" y1="233.52" x2="126.39" y2="239.19"/>
	<line class="st4" x1="132.06" y1="233.52" x2="132.06" y2="239.19"/>
	<line class="st4" x1="137.72" y1="233.52" x2="137.72" y2="239.19"/>
	<line class="st4" x1="143.39" y1="233.52" x2="143.39" y2="239.19"/>
	<line class="st4" x1="154.73" y1="233.52" x2="154.73" y2="239.19"/>
	<line class="st4" x1="160.72" y1="233.52" x2="160.72" y2="239.19"/>
	<line class="st4" x1="166.7" y1="233.52" x2="166.7" y2="239.19"/>
	<line class="st4" x1="172.68" y1="233.52" x2="172.68" y2="239.19"/>
	<line class="st4" x1="183.08" y1="233.52" x2="183.08" y2="239.19"/>
	<line class="st4" x1="189.38" y1="233.52" x2="189.38" y2="239.19"/>
	<line class="st4" x1="195.68" y1="233.52" x2="195.68" y2="239.19"/>
	<line class="st4" x1="201.98" y1="233.52" x2="201.98" y2="239.19"/>
	<line class="st4" x1="211.43" y1="233.52" x2="211.43" y2="239.19"/>
	<line class="st4" x1="217.09" y1="233.52" x2="217.09" y2="239.19"/>
	<line class="st4" x1="222.76" y1="233.52" x2="222.76" y2="239.19"/>
	<line class="st4" x1="228.43" y1="233.52" x2="228.43" y2="239.19"/>
	<line class="st4" x1="239.77" y1="233.52" x2="239.77" y2="239.19"/>
	<line class="st4" x1="245.44" y1="233.52" x2="245.44" y2="239.19"/>
	<line class="st4" x1="251.11" y1="233.52" x2="251.11" y2="239.19"/>
	<line class="st4" x1="256.78" y1="233.52" x2="256.78" y2="239.19"/>
	<line class="st4" x1="268.12" y1="233.52" x2="268.12" y2="239.19"/>
	<line class="st4" x1="273.79" y1="233.52" x2="273.79" y2="239.19"/>
	<line class="st4" x1="279.46" y1="233.52" x2="279.46" y2="239.19"/>
	<line class="st4" x1="285.13" y1="233.52" x2="285.13" y2="239.19"/>
	<line class="st4" x1="296.46" y1="233.52" x2="296.46" y2="239.19"/>
	<line class="st4" x1="302.13" y1="233.52" x2="302.13" y2="239.19"/>
	<line class="st4" x1="307.8" y1="233.52" x2="307.8" y2="239.19"/>
	<line class="st4" x1="313.47" y1="233.52" x2="313.47" y2="239.19"/>
	<line class="st4" x1="324.81" y1="233.52" x2="324.81" y2="239.19"/>
	<line class="st4" x1="330.48" y1="233.52" x2="330.48" y2="239.19"/>
	<line class="st4" x1="336.15" y1="233.52" x2="336.15" y2="239.19"/>
	<line class="st4" x1="341.82" y1="233.52" x2="341.82" y2="239.19"/>
	<line class="st4" x1="353.16" y1="233.52" x2="353.16" y2="239.19"/>
	<line class="st4" x1="358.83" y1="233.52" x2="358.83" y2="239.19"/>
	<line class="st4" x1="364.5" y1="233.52" x2="364.5" y2="239.19"/>
	<line class="st4" x1="370.17" y1="233.52" x2="370.17" y2="239.19"/>
	<line class="st4" x1="381.5" y1="233.52" x2="381.5" y2="239.19"/>
	<line class="st4" x1="387.17" y1="233.52" x2="387.17" y2="239.19"/>
	<line class="st4" x1="392.84" y1="233.52" x2="392.84" y2="239.19"/>
	<line class="st4" x1="398.51" y1="233.52" x2="398.51" y2="239.19"/>
	<line class="st1" x1="64.02" y1="236.35" x2="64.02" y2="21.55"/>
	<polygon class="st2" points="64.02,18.55 62.22,23.35 64.02,21.55 65.82,23.35 	"/>
	<polygon class="st3" points="64.02,18.55 62.22,23.35 64.02,21.55 65.82,23.35 	"/>
	<line class="st4" x1="64.02" y1="123.48" x2="404.18" y2="122.97"/>
	<line class="st4" x1="61.19" y1="213.68" x2="66.86" y2="213.68"/>
	<line class="st4" x1="61.19" y1="219.35" x2="66.86" y2="219.35"/>
	<line class="st4" x1="61.19" y1="225.02" x2="66.86" y2="225.02"/>
	<line class="st4" x1="61.19" y1="230.68" x2="66.86" y2="230.68"/>
	<line class="st4" x1="61.19" y1="185.33" x2="66.86" y2="185.33"/>
	<line class="st4" x1="61.19" y1="191" x2="66.86" y2="191"/>
	<line class="st4" x1="61.19" y1="196.67" x2="66.86" y2="196.67"/>
	<line class="st4" x1="61.19" y1="202.34" x2="66.86" y2="202.34"/>
	<line class="st4" x1="61.19" y1="156.98" x2="66.86" y2="156.98"/>
	<line class="st4" x1="61.19" y1="162.65" x2="66.86" y2="162.65"/>
	<line class="st4" x1="61.19" y1="168.32" x2="66.86" y2="168.32"/>
	<line class="st4" x1="61.19" y1="173.99" x2="66.86" y2="173.99"/>
	<line class="st4" x1="61.19" y1="128.64" x2="66.86" y2="128.64"/>
	<line class="st4" x1="61.19" y1="134.31" x2="66.86" y2="134.31"/>
	<line class="st4" x1="61.19" y1="139.98" x2="66.86" y2="139.98"/>
	<line class="st4" x1="61.19" y1="145.65" x2="66.86" y2="145.65"/>
	<line class="st4" x1="61.19" y1="100.29" x2="66.86" y2="100.29"/>
	<line class="st4" x1="61.19" y1="105.96" x2="66.86" y2="105.96"/>
	<line class="st4" x1="61.19" y1="111.63" x2="66.86" y2="111.63"/>
	<line class="st4" x1="61.19" y1="117.3" x2="66.86" y2="117.3"/>
	<line class="st4" x1="61.19" y1="71.94" x2="66.86" y2="71.94"/>
	<line class="st4" x1="61.19" y1="77.61" x2="66.86" y2="77.61"/>
	<line class="st4" x1="61.19" y1="83.28" x2="66.86" y2="83.28"/>
	<line class="st4" x1="61.19" y1="88.95" x2="66.86" y2="88.95"/>
	<line class="st4" x1="61.19" y1="43.6" x2="66.86" y2="43.6"/>
	<line class="st4" x1="61.19" y1="49.27" x2="66.86" y2="49.27"/>
	<line class="st4" x1="61.19" y1="54.94" x2="66.86" y2="54.94"/>
	<line class="st4" x1="61.19" y1="60.61" x2="66.86" y2="60.61"/>
	<g class="st2">
		<text transform="matrix(1 0 0 1 426.2517 255.3543)" class="st5 st6">I in mA</text>
	</g>
	<g class="st2">
		<text transform="matrix(1 0 0 1 14.6338 34.252)" class="st5 st6">U in V</text>
	</g>
	<g class="st2">
		<text transform="matrix(1 0 0 1 113.8937 255.3543)" class="st5 st6">10</text>
	</g>
	<g class="st2">
		<text transform="matrix(1 0 0 1 170.4094 255.3543)" class="st5 st6">20</text>
	</g>
	<g class="st2">
		<text transform="matrix(1 0 0 1 227.1024 255.3543)" class="st5 st6">30</text>
	</g>
	<g class="st2">
		<text transform="matrix(1 0 0 1 283.9842 255.3543)" class="st5 st6">40</text>
	</g>
	<g class="st2">
		<text transform="matrix(1 0 0 1 339.3543 255.3543)" class="st5 st6">50</text>
	</g>
	<g class="st2">
		<text transform="matrix(1 0 0 1 397.559 255.3543)" class="st5 st6">60</text>
	</g>
	<g class="st2">
		<text transform="matrix(1 0 0 1 46.689 212.8346)" class="st5 st6">1</text>
	</g>
	<g class="st2">
		<text transform="matrix(1 0 0 1 46.689 184.4882)" class="st5 st6">2</text>
	</g>
	<g class="st2">
		<text transform="matrix(1 0 0 1 46.689 156.1417)" class="st5 st6">3</text>
	</g>
	<g class="st2">
		<text transform="matrix(1 0 0 1 46.689 127.7953)" class="st5 st6">4</text>
	</g>
	<g class="st2">
		<text transform="matrix(1 0 0 1 46.689 99.4488)" class="st5 st6">5</text>
	</g>
	<g class="st2">
		<text transform="matrix(1 0 0 1 46.689 71.1024)" class="st5 st6">6</text>
	</g>
	<line class="st4" x1="98.04" y1="233.52" x2="98.04" y2="239.19"/>
	<line class="st4" x1="103.71" y1="233.52" x2="103.71" y2="239.19"/>
	<line class="st4" x1="109.38" y1="233.52" x2="109.38" y2="239.19"/>
	<line class="st4" x1="115.05" y1="233.52" x2="115.05" y2="239.19"/>
	<line class="st4" x1="92.37" y1="236.35" x2="92.37" y2="37.93"/>
	<line class="st4" x1="120.72" y1="236.35" x2="120.72" y2="38.93"/>
	<line class="st4" x1="149.06" y1="236.35" x2="149.06" y2="37.93"/>
	<line class="st4" x1="177.41" y1="236.35" x2="177.41" y2="37.93"/>
	<line class="st4" x1="205.76" y1="236.35" x2="205.76" y2="37.93"/>
	<line class="st4" x1="234.1" y1="236.35" x2="234.1" y2="37.93"/>
	<line class="st4" x1="262.45" y1="236.35" x2="262.45" y2="37.93"/>
	<line class="st4" x1="290.8" y1="236.35" x2="290.8" y2="38.93"/>
	<line class="st4" x1="319.14" y1="236.35" x2="319.14" y2="37.93"/>
	<line class="st4" x1="347.49" y1="236.35" x2="347.49" y2="37.93"/>
	<line class="st4" x1="375.83" y1="236.35" x2="375.83" y2="37.93"/>
	<line class="st4" x1="120.72" y1="236.35" x2="120.72" y2="38.93"/>
	<line class="st4" x1="404.18" y1="236.35" x2="404.18" y2="37.93"/>
	<line class="st4" x1="64.02" y1="208.52" x2="404.18" y2="208.01"/>
</g>
</svg>
